<svg xmlns="http://www.w3.org/2000/svg" viewBox="0 0 384 512" role="img" aria-hidden="true">
  <path fill="#ffffff" d="M318.7 268.7c-.2-45.7 37.3-67.6 39-68.7-21.3-31.1-54.3-35.4-66.1-35.8-28.2-2.9-55 16.6-69.3 16.6s-36.3-16.2-59.7-15.8c-30.7.5-59.1 17.9-74.9 45.4-31.9 55.2-8.2 136.8 22.9 181.7 15.2 21.9 33.3 46.4 57.1 45.5 22.9-.9 31.5-14.8 59.2-14.8s35.5 14.8 59.7 14.3c24.7-.4 40.3-22.3 55.4-44.3 17.5-25.5 24.7-50.1 25.1-51.4-.5-.2-48.1-18.5-48.4-73.7zm-45.7-134.1c12.7-15.4 21.3-36.8 18.9-58.1-18.3.7-40.4 12.2-53.6 27.6-11.8 13.7-22.1 35.5-19.3 56.4 20.4 1.6 41.3-10.4 54-25.9z"/>
</svg>
